# xmcd
#
# Track frame offsets:
# 150
# 14387
# 44202
# 59340
# 82329
# 104362
# 137172
# 157807
# 169684
# 193465
# 212737
# 238407
# 259285
# 273895
# 298520
#
# Disc length: 4251 seconds
#
#
# Revision: 0
# Processed by: cddbd v1.5.2PL0 Copyright (c) Steve Scherf et al.
# Submitted via: FreeRIP 2.945 
#
DISCID=ec10990f
DTITLE=Various Artist - Witchcraft: Black Magic for Beginners
DYEAR=1900
DGENRE=Blues
TTITLE0=Johnny Jones - Chip of the old block
TTITLE1=Johnnie Bassett - I'll get over you
TTITLE2=Smokey Wilson - Down in Virginia
TTITLE3=Andrew Brown - I can hear my baby talking
TTITLE4=Fenton Robinson - I lost my true love
TTITLE5=Little Smokey Smothers - Tribute to Earl Hooker
TTITLE6=Diamond Jim Greene - Just a dream
TTITLE7=Al Garner - You must be crazy
TTITLE8=Earl Gaines - Mercy on my soul
TTITLE9=Fenton Robinson - Special road
TTITLE10=King Alex - Never do you no wrong
TTITLE11=Kid Ramos - You don't love me
TTITLE12=Timothy 'Little' Cooper
TTITLE13=Lacy Gibson - Easy woman
TTITLE14=Lee 'Shot' Williams - Love is a cold shot
EXTD=
EXTT0=
EXTT1=
EXTT2=
EXTT3=
EXTT4=
EXTT5=
EXTT6=
EXTT7=
EXTT8=
EXTT9=
EXTT10=
EXTT11=
EXTT12=
EXTT13=
EXTT14=
PLAYORDER=
